<svg id="Capa_1" enable-background="new 0 0 512 512" height="512" viewBox="0 0 512 512" width="512" xmlns="http://www.w3.org/2000/svg"><g><path d="m511.4 238.41v.01l-1.15 1.22c-137.41 147.66-370.86 148.94-509.89 2.79 2.14-41.13 14-79.69 33.32-113.43 44.12-77.07 127.16-129 222.32-129s178.2 51.93 222.32 129c12.98 22.67 22.59 47.52 28.15 73.86 2.45 11.59 4.11 23.45 4.93 35.55z" fill="#4e689b"/><g><path d="m511.4 238.41-1.15 1.23c-137.41 147.66-370.86 148.94-509.89 2.79 2.14-41.13 14-79.69 33.32-113.43 44.12 77.07 127.16 129 222.32 129s178.2-51.93 222.32-129c18.69 32.64 30.4 69.78 33.08 109.41z" fill="#374c81"/></g><path d="m512 256c0 66.48-25.35 127.04-66.89 172.55-46.66 51.1-113.74 83.22-188.32 83.45h-.79c-74.9 0-142.29-32.17-189.11-83.45-14.46-15.84-26.96-33.5-37.1-52.61-16.35-30.76-26.61-65.26-29.16-101.88-.42-5.96-.63-11.99-.63-18.06 0-4.55.12-9.08.36-13.57 6.07-5.61 12.13-11.22 18.2-16.82 15.95-14.74 32.35-38.38 55.84-26.74 10.89 5.4 18.93 15.59 26.6 25.47 13.72 17.68 55.89 78.7 69.8 87.52 8.59 5.44 19.08 8.35 28.7 5.47 9.66-2.88 17.06-11.02 23.96-18.82 13.91-15.73 17.91-20.2 32.54-39.25 2.08-2.7 4.37-5.7 6.94-9.07 14.03-18.41 21.38-27.6 35.1-20.85 11.81 5.82 30.43 34.01 43.71 34.69 13.81.71 22.69-12.27 31.41-23.86 20.53-27.27 44.43-67.57 52.83-75.91 17.9-17.76 30.15 9.03 40.82 21.27 15.12 17.35 29.82 35.17 44.59 52.88.34 4.98.54 10.01.59 15.07.01.84.01 1.68.01 2.52z" fill="#9596a5"/><path d="m512 256c0 17.75-1.81 35.07-5.25 51.8-9.44 45.94-31.19 87.39-61.64 120.75-46.66 51.1-113.74 83.22-188.32 83.45h-.79v-252.74c2.08-2.7 4.37-5.7 6.94-9.07 14.03-18.41 21.38-27.6 35.1-20.85 11.81 5.82 30.43 34.01 43.71 34.69 13.81.71 22.69-12.27 31.41-23.86 20.53-27.27 44.43-67.57 52.83-75.91 17.9-17.76 30.15 9.03 40.82 21.27 15.12 17.35 29.82 35.17 44.59 52.88v.01c.34 4.98.54 10 .59 15.06.01.84.01 1.68.01 2.52z" fill="#7e7f92"/><path d="m506.75 307.8c-9.44 45.94-31.19 87.39-61.64 120.75-46.66 51.1-113.74 83.22-188.32 83.45h-.79c-74.9 0-142.29-32.17-189.11-83.45-14.46-15.84-26.96-33.5-37.1-52.61-3.36-6.32-6.46-12.8-9.29-19.43 2.35-1.87 4.77-3.68 7.27-5.42 10.95-7.63 19.6-18.66 34.41-17.73 14.75.93 26.6 12.04 36.76 22.76 8.34 8.8 34.65 42.19 52.51 42.19 31.37 0 65.8-56.39 90.17-52.2 4.87.84 9.59 2.6 14.38 3.79 2.87.72 5.77 1.23 8.73 1.2 22.51-.2 35.12-26.61 52.42-37.37 10.48-6.52 25.08 10.36 36.4 6.77 13.87-4.39 69.2-69.7 82.37-67.04 6.14 1.24 11.21 5.4 16.01 9.42 9.27 7.77 31.88 26.1 54.82 44.92z" fill="#7e7f92"/><path d="m506.75 307.8c-9.44 45.94-31.19 87.39-61.64 120.75-46.66 51.1-113.74 83.22-188.32 83.45h-.79v-162.1c2.87.72 5.77 1.23 8.73 1.2 22.51-.2 35.12-26.61 52.42-37.37 10.48-6.52 25.08 10.36 36.4 6.77 13.87-4.39 69.2-69.7 82.37-67.04 6.14 1.24 11.21 5.4 16.01 9.42 9.27 7.77 31.88 26.1 54.82 44.92z" fill="#6e6f83"/><path d="m449.5 423.6c-1.43 1.67-2.9 3.32-4.39 4.95-46.66 51.1-113.74 83.22-188.32 83.45h-.79c-58.9 0-113.16-19.9-156.42-53.34 29.28-24.12 56.15-46.66 68.39-58 26.73-24.77 45.7 23.01 77.56 22.72 2.75-.03 6.33-1.35 10.47-3.63 20.07-11.02 53.55-44.46 72.17-62.14 6.91-6.56 14.37-13.41 23.73-15.21 16.61-3.2 31.32 10.27 42.87 22.63 18.24 19.52 36.48 39.04 54.73 58.57z" fill="#6e6f83"/><path d="m449.5 423.6c-1.43 1.67-2.9 3.32-4.39 4.95-46.66 51.1-113.74 83.22-188.32 83.45h-.79v-92.25c20.07-11.02 53.55-44.46 72.17-62.14 6.91-6.56 14.37-13.41 23.73-15.21 16.61-3.2 31.32 10.27 42.87 22.63 18.24 19.52 36.48 39.04 54.73 58.57z" fill="#605f74"/><path d="m411.55 459.33c-42.92 32.89-96.56 52.49-154.76 52.67h-.79c-36.07 0-70.4-7.46-101.53-20.93 11.47-10.33 21.62-19.35 28.03-24.62 5.23-4.3 12.2-9.22 19.23-8.44 8.88 1 15.56 6.73 25.21 5.56 8.82-1.07 16.46-6.42 23.68-11.6 1.79-1.28 3.59-2.57 5.38-3.85 7.64-5.47 15.26-10.93 22.89-16.4 7.49-5.37 15.39-14.34 25.04-13.19 14.32 1.7 20.63 18.18 35.37 19.41 13.45.84 21.41-12.17 33.92-11.41 6.49.4 11.69 5.3 16.28 9.9 7.08 7.11 14.47 14.83 22.05 22.9z" fill="#605f74"/><path d="m411.55 459.33c-42.92 32.89-96.56 52.49-154.76 52.67h-.79v-63.88c7.64-5.47 15.26-10.93 22.89-16.4 7.49-5.37 15.39-14.34 25.04-13.19 14.32 1.7 20.63 18.18 35.37 19.41 13.45.84 21.41-12.17 33.92-11.41 6.49.4 11.69 5.3 16.28 9.9 7.08 7.11 14.47 14.83 22.05 22.9z" fill="#58586b"/><path d="m303.729 135.665c0 24.459-19.832 44.291-44.291 44.291-24.469 0-44.291-19.832-44.291-44.291 0-24.469 19.822-44.301 44.291-44.301 24.46.001 44.291 19.833 44.291 44.301z" fill="#fdd500"/><path d="m303.729 135.665c0 24.459-19.832 44.291-44.291 44.291v-88.591c24.46 0 44.291 19.832 44.291 44.3z" fill="#ffbc02"/><g><path d="m39.537 157.352c0-.078-.006-.155-.006-.233 0-14.255 11.556-25.811 25.811-25.811 3.387 0 6.618.659 9.581 1.845 5.724-10.254 16.675-17.192 29.253-17.192 16.333 0 29.927 11.697 32.882 27.169.881-.126 1.78-.195 2.696-.195 8.88 0 16.32 6.147 18.309 14.417z" fill="#fff"/><path d="m64.721 157.352c0-.045-.003-.089-.003-.134 0-8.197 6.645-14.842 14.842-14.842 1.947 0 3.806.379 5.509 1.061 3.291-5.896 9.589-9.886 16.821-9.886 9.392 0 17.209 6.726 18.908 15.623.507-.072 1.024-.112 1.55-.112 5.106 0 9.385 3.535 10.528 8.29z" fill="#dff7fd"/></g><g><path d="m449.185 118.317c0-.074.005-.146.005-.22 0-13.504-10.947-24.451-24.451-24.451-3.208 0-6.269.624-9.076 1.747-5.422-9.714-15.797-16.286-27.711-16.286-15.473 0-28.35 11.081-31.149 25.738-.834-.12-1.686-.185-2.554-.185-8.412 0-15.46 5.823-17.344 13.658h112.28z" fill="#fff"/><path d="m425.328 118.317c0-.043.003-.084.003-.127 0-7.765-6.295-14.06-14.06-14.06-1.845 0-3.605.359-5.219 1.005-3.118-5.586-9.083-9.365-15.935-9.365-8.897 0-16.302 6.372-17.911 14.8-.48-.069-.97-.106-1.468-.106-4.837 0-8.89 3.349-9.973 7.854h64.563z" fill="#dff7fd"/></g><g><g><path d="m193.406 228.312h-.946c-4.189 0-7.585-3.396-7.585-7.585v-.946h-5.406v.946c0 4.189-3.396 7.585-7.585 7.585h-.946v5.406h.946c4.189 0 7.585 3.396 7.585 7.585v.946h5.406v-.946c0-4.189 3.396-7.585 7.585-7.585h.946z" fill="#fff"/></g></g><g><g><path d="m376.025 172.359h-1.524c-6.753 0-12.227-5.474-12.227-12.227v-1.524h-8.716v1.524c0 6.753-5.474 12.227-12.227 12.227h-1.525v8.716h1.525c6.753 0 12.227 5.474 12.227 12.227v1.525h8.716v-1.525c0-6.753 5.474-12.227 12.227-12.227h1.524z" fill="#fff"/></g></g><g><g><path d="m190.001 67.912h-1.524c-6.753 0-12.227-5.474-12.227-12.227v-1.524h-8.716v1.524c0 6.753-5.474 12.227-12.227 12.227h-1.525v8.716h1.525c6.753 0 12.227 5.474 12.227 12.227v1.525h8.716v-1.525c0-6.753 5.474-12.227 12.227-12.227h1.524z" fill="#fff"/></g></g><g><g><path d="m330.896 49.704h-.946c-4.189 0-7.585-3.396-7.585-7.585v-.946h-5.407v.946c0 4.189-3.396 7.585-7.585 7.585h-.946v5.406h.946c4.189 0 7.585 3.396 7.585 7.585v.946h5.407v-.946c0-4.189 3.396-7.585 7.585-7.585h.946z" fill="#fff"/></g></g></g></svg>